<svg height="500" width="500">
<line x1="200" y1="200" x2="215" y2="200" stroke="blue" stroke-width="1" />
<circle cx="215" cy="200" r="5"               style="fill:green;stroke:black;stroke-width:1;fill-opacity:1.000000;stroke-opacity:0.9" />
<text text-anchor="middle" x="215" y="201" fill="black" font-size="8px">1</text>
<text text-anchor="left" x="200" y="310" fill="black" font-size="10px">Araha.10914s0007.1</text>
<line x1="200" y1="200" x2="173" y2="182" stroke="blue" stroke-width="1" />
<circle cx="173" cy="182" r="5"               style="fill:green;stroke:black;stroke-width:1;fill-opacity:0.591247;stroke-opacity:0.9" />
<text text-anchor="middle" x="173" y="183" fill="black" font-size="8px">2</text>
<text text-anchor="left" x="200" y="320" fill="black" font-size="10px">Araha.16864s0002.1</text>
<line x1="200" y1="200" x2="195" y2="269" stroke="blue" stroke-width="1" />
<circle cx="195" cy="269" r="5"               style="fill:green;stroke:black;stroke-width:1;fill-opacity:0.259613;stroke-opacity:0.9" />
<text text-anchor="middle" x="195" y="270" fill="black" font-size="8px">3</text>
<text text-anchor="left" x="200" y="330" fill="black" font-size="10px">Araha.6352s0003.1</text>
<line x1="200" y1="200" x2="200" y2="271" stroke="blue" stroke-width="1" />
<circle cx="200" cy="271" r="5"               style="fill:green;stroke:black;stroke-width:1;fill-opacity:0.249048;stroke-opacity:0.9" />
<text text-anchor="middle" x="200" y="272" fill="black" font-size="8px">4</text>
<text text-anchor="left" x="200" y="340" fill="black" font-size="10px">Araha.0626s0002.1</text>
<line x1="200" y1="200" x2="181" y2="261" stroke="blue" stroke-width="1" />
<circle cx="181" cy="261" r="5"               style="fill:green;stroke:black;stroke-width:1;fill-opacity:0.296304;stroke-opacity:0.9" />
<text text-anchor="middle" x="181" y="262" fill="black" font-size="8px">5</text>
<text text-anchor="left" x="200" y="350" fill="black" font-size="10px">Araha.10347s0004.1</text>
<line x1="200" y1="200" x2="180" y2="261" stroke="blue" stroke-width="1" />
<circle cx="180" cy="261" r="5"               style="fill:green;stroke:black;stroke-width:1;fill-opacity:0.298362;stroke-opacity:0.9" />
<text text-anchor="middle" x="180" y="262" fill="black" font-size="8px">6</text>
<text text-anchor="left" x="200" y="360" fill="black" font-size="10px">Araha.23770s0001.1</text>
<line x1="200" y1="200" x2="200" y2="271" stroke="blue" stroke-width="1" />
<circle cx="200" cy="271" r="5"               style="fill:green;stroke:black;stroke-width:1;fill-opacity:0.249048;stroke-opacity:0.9" />
<text text-anchor="middle" x="200" y="272" fill="black" font-size="8px">7</text>
<text text-anchor="left" x="200" y="370" fill="black" font-size="10px">Araha.24127s0007.1</text>
<line x1="200" y1="200" x2="213" y2="274" stroke="blue" stroke-width="1" />
<circle cx="213" cy="274" r="5"               style="fill:green;stroke:black;stroke-width:1;fill-opacity:0.222244;stroke-opacity:0.9" />
<text text-anchor="middle" x="213" y="275" fill="black" font-size="8px">8</text>
<text text-anchor="left" x="200" y="380" fill="black" font-size="10px">Araha.15383s0001.1</text>
<line x1="200" y1="200" x2="191" y2="267" stroke="blue" stroke-width="1" />
<circle cx="191" cy="267" r="5"               style="fill:green;stroke:black;stroke-width:1;fill-opacity:0.269617;stroke-opacity:0.9" />
<text text-anchor="middle" x="191" y="268" fill="black" font-size="8px">9</text>
<text text-anchor="left" x="200" y="390" fill="black" font-size="10px">Araha.27509s0002.1</text>
<line x1="200" y1="200" x2="210" y2="273" stroke="blue" stroke-width="1" />
<circle cx="210" cy="273" r="5"               style="fill:green;stroke:black;stroke-width:1;fill-opacity:0.228166;stroke-opacity:0.9" />
<text text-anchor="middle" x="210" y="274" fill="black" font-size="8px">10</text>
<text text-anchor="left" x="200" y="400" fill="black" font-size="10px">Araha.17825s0003.1</text>
<line x1="200" y1="200" x2="228" y2="275" stroke="blue" stroke-width="1" />
<circle cx="228" cy="275" r="5"               style="fill:green;stroke:black;stroke-width:1;fill-opacity:0.192057;stroke-opacity:0.9" />
<text text-anchor="middle" x="228" y="276" fill="black" font-size="8px">11</text>
<text text-anchor="left" x="200" y="410" fill="black" font-size="10px">Araha.0439s0001.1</text>
<line x1="200" y1="200" x2="226" y2="275" stroke="blue" stroke-width="1" />
<circle cx="226" cy="275" r="5"               style="fill:green;stroke:black;stroke-width:1;fill-opacity:0.195092;stroke-opacity:0.9" />
<text text-anchor="middle" x="226" y="276" fill="black" font-size="8px">12</text>
<text text-anchor="left" x="200" y="420" fill="black" font-size="10px">Araha.4848s0002.1</text>
<line x1="200" y1="200" x2="206" y2="272" stroke="blue" stroke-width="1" />
<circle cx="206" cy="272" r="5"               style="fill:green;stroke:black;stroke-width:1;fill-opacity:0.236819;stroke-opacity:0.9" />
<text text-anchor="middle" x="206" y="273" fill="black" font-size="8px">13</text>
<text text-anchor="left" x="200" y="430" fill="black" font-size="10px">Araha.6729s0005.1</text>
<line x1="200" y1="200" x2="218" y2="274" stroke="blue" stroke-width="1" />
<circle cx="218" cy="274" r="5"               style="fill:green;stroke:black;stroke-width:1;fill-opacity:0.211898;stroke-opacity:0.9" />
<text text-anchor="middle" x="218" y="275" fill="black" font-size="8px">14</text>
<text text-anchor="left" x="200" y="440" fill="black" font-size="10px">Araha.7283s0010.1</text>
<line x1="200" y1="200" x2="233" y2="274" stroke="blue" stroke-width="1" />
<circle cx="233" cy="274" r="5"               style="fill:green;stroke:black;stroke-width:1;fill-opacity:0.182954;stroke-opacity:0.9" />
<text text-anchor="middle" x="233" y="275" fill="black" font-size="8px">15</text>
<text text-anchor="left" x="200" y="450" fill="black" font-size="10px">Araha.14454s0001.1</text>
<line x1="200" y1="200" x2="234" y2="274" stroke="blue" stroke-width="1" />
<circle cx="234" cy="274" r="5"               style="fill:green;stroke:black;stroke-width:1;fill-opacity:0.181017;stroke-opacity:0.9" />
<text text-anchor="middle" x="234" y="275" fill="black" font-size="8px">16</text>
<text text-anchor="left" x="200" y="460" fill="black" font-size="10px">Araha.43350s0001.1</text>
<line x1="200" y1="200" x2="202" y2="272" stroke="blue" stroke-width="1" />
<circle cx="202" cy="272" r="5"               style="fill:green;stroke:black;stroke-width:1;fill-opacity:0.244653;stroke-opacity:0.9" />
<text text-anchor="middle" x="202" y="273" fill="black" font-size="8px">17</text>
<text text-anchor="left" x="200" y="470" fill="black" font-size="10px">Araha.30465s0001.1</text>
<line x1="200" y1="200" x2="286" y2="248" stroke="blue" stroke-width="1" />
<circle cx="286" cy="248" r="5"               style="fill:green;stroke:black;stroke-width:1;fill-opacity:0.080901;stroke-opacity:0.9" />
<text text-anchor="middle" x="286" y="249" fill="black" font-size="8px">18</text>
<text text-anchor="left" x="200" y="480" fill="black" font-size="10px">Araha.52471s0001.1</text>
<circle cx="200" cy="200" r="10"               style="fill:red;stroke:black;stroke-width:1;fill-opacity:1.000000;stroke-opacity:0.9" />
</svg>
