<svg height="300" width="1200">
<text text-anchor="middle" x="200" y="150" fill="black" font-size="15px">AT1G01620.1</text>
<text text-anchor="middle" x="200" y="130" fill="black" font-size="15px" font-style = "italic">A.thaliana</text>
<text text-anchor="middle" x="400" y="130" fill="black" font-size="15px" font-style = "italic">A.lyrata</text>
<text text-anchor="middle" x="600" y="130" fill="black" font-size="15px" font-style = "italic">E.salsugineum</text>
<text text-anchor="middle" x="800" y="130" fill="black" font-size="15px" font-style = "italic">A.halleri</text>
<text text-anchor="middle" x="1000" y="130" fill="black" font-size="15px" font-style = "italic">A.halleri_transcriptome</text>
<text text-anchor="middle" x="100" y="110" fill="black" font-size="15px">PIP1;3</text>
<line x1="200" y1="200" x2="215" y2="200" stroke="blue" stroke-width="1" />
<circle cx="215" cy="200" r="5"               style="fill:green;stroke:black;stroke-width:1;fill-opacity:1.000000;stroke-opacity:0.9" />
<text text-anchor="middle" x="215" y="201" fill="black" font-size="8px">1</text>
<line x1="200" y1="200" x2="214" y2="197" stroke="blue" stroke-width="1" />
<circle cx="214" cy="197" r="5"               style="fill:green;stroke:black;stroke-width:1;fill-opacity:0.973891;stroke-opacity:0.9" />
<text text-anchor="middle" x="214" y="198" fill="black" font-size="8px">2</text>
<line x1="200" y1="200" x2="214" y2="195" stroke="blue" stroke-width="1" />
<circle cx="214" cy="195" r="5"               style="fill:green;stroke:black;stroke-width:1;fill-opacity:0.954700;stroke-opacity:0.9" />
<text text-anchor="middle" x="214" y="196" fill="black" font-size="8px">3</text>
<line x1="200" y1="200" x2="214" y2="195" stroke="blue" stroke-width="1" />
<circle cx="214" cy="195" r="5"               style="fill:green;stroke:black;stroke-width:1;fill-opacity:0.949549;stroke-opacity:0.9" />
<text text-anchor="middle" x="214" y="196" fill="black" font-size="8px">4</text>
<line x1="200" y1="200" x2="207" y2="183" stroke="blue" stroke-width="1" />
<circle cx="207" cy="183" r="5"               style="fill:green;stroke:black;stroke-width:1;fill-opacity:0.821715;stroke-opacity:0.9" />
<text text-anchor="middle" x="207" y="184" fill="black" font-size="8px">5</text>
<line x1="200" y1="200" x2="189" y2="177" stroke="blue" stroke-width="1" />
<circle cx="189" cy="177" r="5"               style="fill:green;stroke:black;stroke-width:1;fill-opacity:0.683087;stroke-opacity:0.9" />
<text text-anchor="middle" x="189" y="178" fill="black" font-size="8px">6</text>
<line x1="200" y1="200" x2="190" y2="177" stroke="blue" stroke-width="1" />
<circle cx="190" cy="177" r="5"               style="fill:green;stroke:black;stroke-width:1;fill-opacity:0.685490;stroke-opacity:0.9" />
<text text-anchor="middle" x="190" y="178" fill="black" font-size="8px">7</text>
<line x1="200" y1="200" x2="191" y2="177" stroke="blue" stroke-width="1" />
<circle cx="191" cy="177" r="5"               style="fill:green;stroke:black;stroke-width:1;fill-opacity:0.692195;stroke-opacity:0.9" />
<text text-anchor="middle" x="191" y="178" fill="black" font-size="8px">8</text>
<line x1="200" y1="200" x2="189" y2="177" stroke="blue" stroke-width="1" />
<circle cx="189" cy="177" r="5"               style="fill:green;stroke:black;stroke-width:1;fill-opacity:0.680651;stroke-opacity:0.9" />
<text text-anchor="middle" x="189" y="178" fill="black" font-size="8px">9</text>
<line x1="200" y1="200" x2="187" y2="177" stroke="blue" stroke-width="1" />
<circle cx="187" cy="177" r="5"               style="fill:green;stroke:black;stroke-width:1;fill-opacity:0.670135;stroke-opacity:0.9" />
<text text-anchor="middle" x="187" y="178" fill="black" font-size="8px">10</text>
<line x1="200" y1="200" x2="186" y2="177" stroke="blue" stroke-width="1" />
<circle cx="186" cy="177" r="5"               style="fill:green;stroke:black;stroke-width:1;fill-opacity:0.662024;stroke-opacity:0.9" />
<text text-anchor="middle" x="186" y="178" fill="black" font-size="8px">11</text>
<line x1="200" y1="200" x2="185" y2="177" stroke="blue" stroke-width="1" />
<circle cx="185" cy="177" r="5"               style="fill:green;stroke:black;stroke-width:1;fill-opacity:0.656312;stroke-opacity:0.9" />
<text text-anchor="middle" x="185" y="178" fill="black" font-size="8px">12</text>
<line x1="200" y1="200" x2="184" y2="177" stroke="blue" stroke-width="1" />
<circle cx="184" cy="177" r="5"               style="fill:green;stroke:black;stroke-width:1;fill-opacity:0.651627;stroke-opacity:0.9" />
<text text-anchor="middle" x="184" y="178" fill="black" font-size="8px">13</text>
<line x1="200" y1="200" x2="178" y2="259" stroke="blue" stroke-width="1" />
<circle cx="178" cy="259" r="5"               style="fill:green;stroke:black;stroke-width:1;fill-opacity:0.305721;stroke-opacity:0.9" />
<text text-anchor="middle" x="178" y="260" fill="black" font-size="8px">14</text>
<line x1="200" y1="200" x2="174" y2="256" stroke="blue" stroke-width="1" />
<circle cx="174" cy="256" r="5"               style="fill:green;stroke:black;stroke-width:1;fill-opacity:0.317076;stroke-opacity:0.9" />
<text text-anchor="middle" x="174" y="257" fill="black" font-size="8px">15</text>
<line x1="200" y1="200" x2="175" y2="256" stroke="blue" stroke-width="1" />
<circle cx="175" cy="256" r="5"               style="fill:green;stroke:black;stroke-width:1;fill-opacity:0.314820;stroke-opacity:0.9" />
<text text-anchor="middle" x="175" y="257" fill="black" font-size="8px">16</text>
<line x1="200" y1="200" x2="170" y2="252" stroke="blue" stroke-width="1" />
<circle cx="170" cy="252" r="5"               style="fill:green;stroke:black;stroke-width:1;fill-opacity:0.330877;stroke-opacity:0.9" />
<text text-anchor="middle" x="170" y="253" fill="black" font-size="8px">17</text>
<line x1="200" y1="200" x2="171" y2="253" stroke="blue" stroke-width="1" />
<circle cx="171" cy="253" r="5"               style="fill:green;stroke:black;stroke-width:1;fill-opacity:0.327095;stroke-opacity:0.9" />
<text text-anchor="middle" x="171" y="254" fill="black" font-size="8px">18</text>
<line x1="200" y1="200" x2="185" y2="264" stroke="blue" stroke-width="1" />
<circle cx="185" cy="264" r="5"               style="fill:green;stroke:black;stroke-width:1;fill-opacity:0.284630;stroke-opacity:0.9" />
<text text-anchor="middle" x="185" y="265" fill="black" font-size="8px">19</text>
<line x1="200" y1="200" x2="176" y2="257" stroke="blue" stroke-width="1" />
<circle cx="176" cy="257" r="5"               style="fill:green;stroke:black;stroke-width:1;fill-opacity:0.311679;stroke-opacity:0.9" />
<text text-anchor="middle" x="176" y="258" fill="black" font-size="8px">20</text>
<line x1="200" y1="200" x2="175" y2="256" stroke="blue" stroke-width="1" />
<circle cx="175" cy="256" r="5"               style="fill:green;stroke:black;stroke-width:1;fill-opacity:0.315947;stroke-opacity:0.9" />
<text text-anchor="middle" x="175" y="257" fill="black" font-size="8px">21</text>
<line x1="200" y1="200" x2="176" y2="257" stroke="blue" stroke-width="1" />
<circle cx="176" cy="257" r="5"               style="fill:green;stroke:black;stroke-width:1;fill-opacity:0.312872;stroke-opacity:0.9" />
<text text-anchor="middle" x="176" y="258" fill="black" font-size="8px">22</text>
<line x1="200" y1="200" x2="186" y2="264" stroke="blue" stroke-width="1" />
<circle cx="186" cy="264" r="5"               style="fill:green;stroke:black;stroke-width:1;fill-opacity:0.283059;stroke-opacity:0.9" />
<text text-anchor="middle" x="186" y="265" fill="black" font-size="8px">23</text>
<circle cx="200" cy="200" r="10"               style="fill:red;stroke:black;stroke-width:1;fill-opacity:1.000000;stroke-opacity:0.9" />
<text text-anchor="middle" x="400" y="150" fill="black" font-size="15px">470115</text>
<line x1="400" y1="200" x2="415" y2="200" stroke="blue" stroke-width="1" />
<circle cx="415" cy="200" r="5"               style="fill:green;stroke:black;stroke-width:1;fill-opacity:1.000000;stroke-opacity:0.9" />
<text text-anchor="middle" x="415" y="201" fill="black" font-size="8px">1</text>
<line x1="400" y1="200" x2="414" y2="197" stroke="blue" stroke-width="1" />
<circle cx="414" cy="197" r="5"               style="fill:green;stroke:black;stroke-width:1;fill-opacity:0.970485;stroke-opacity:0.9" />
<text text-anchor="middle" x="414" y="198" fill="black" font-size="8px">2</text>
<line x1="400" y1="200" x2="414" y2="194" stroke="blue" stroke-width="1" />
<circle cx="414" cy="194" r="5"               style="fill:green;stroke:black;stroke-width:1;fill-opacity:0.940800;stroke-opacity:0.9" />
<text text-anchor="middle" x="414" y="195" fill="black" font-size="8px">3</text>
<line x1="400" y1="200" x2="414" y2="194" stroke="blue" stroke-width="1" />
<circle cx="414" cy="194" r="5"               style="fill:green;stroke:black;stroke-width:1;fill-opacity:0.944300;stroke-opacity:0.9" />
<text text-anchor="middle" x="414" y="195" fill="black" font-size="8px">4</text>
<line x1="400" y1="200" x2="414" y2="194" stroke="blue" stroke-width="1" />
<circle cx="414" cy="194" r="5"               style="fill:green;stroke:black;stroke-width:1;fill-opacity:0.946042;stroke-opacity:0.9" />
<text text-anchor="middle" x="414" y="195" fill="black" font-size="8px">5</text>
<line x1="400" y1="200" x2="390" y2="177" stroke="blue" stroke-width="1" />
<circle cx="390" cy="177" r="5"               style="fill:green;stroke:black;stroke-width:1;fill-opacity:0.686603;stroke-opacity:0.9" />
<text text-anchor="middle" x="390" y="178" fill="black" font-size="8px">6</text>
<line x1="400" y1="200" x2="389" y2="177" stroke="blue" stroke-width="1" />
<circle cx="389" cy="177" r="5"               style="fill:green;stroke:black;stroke-width:1;fill-opacity:0.682013;stroke-opacity:0.9" />
<text text-anchor="middle" x="389" y="178" fill="black" font-size="8px">7</text>
<line x1="400" y1="200" x2="390" y2="177" stroke="blue" stroke-width="1" />
<circle cx="390" cy="177" r="5"               style="fill:green;stroke:black;stroke-width:1;fill-opacity:0.688734;stroke-opacity:0.9" />
<text text-anchor="middle" x="390" y="178" fill="black" font-size="8px">8</text>
<line x1="400" y1="200" x2="389" y2="177" stroke="blue" stroke-width="1" />
<circle cx="389" cy="177" r="5"               style="fill:green;stroke:black;stroke-width:1;fill-opacity:0.680586;stroke-opacity:0.9" />
<text text-anchor="middle" x="389" y="178" fill="black" font-size="8px">9</text>
<line x1="400" y1="200" x2="386" y2="177" stroke="blue" stroke-width="1" />
<circle cx="386" cy="177" r="5"               style="fill:green;stroke:black;stroke-width:1;fill-opacity:0.666660;stroke-opacity:0.9" />
<text text-anchor="middle" x="386" y="178" fill="black" font-size="8px">10</text>
<line x1="400" y1="200" x2="384" y2="177" stroke="blue" stroke-width="1" />
<circle cx="384" cy="177" r="5"               style="fill:green;stroke:black;stroke-width:1;fill-opacity:0.655104;stroke-opacity:0.9" />
<text text-anchor="middle" x="384" y="178" fill="black" font-size="8px">11</text>
<line x1="400" y1="200" x2="386" y2="177" stroke="blue" stroke-width="1" />
<circle cx="386" cy="177" r="5"               style="fill:green;stroke:black;stroke-width:1;fill-opacity:0.665510;stroke-opacity:0.9" />
<text text-anchor="middle" x="386" y="178" fill="black" font-size="8px">12</text>
<line x1="400" y1="200" x2="378" y2="179" stroke="blue" stroke-width="1" />
<circle cx="378" cy="179" r="5"               style="fill:green;stroke:black;stroke-width:1;fill-opacity:0.619343;stroke-opacity:0.9" />
<text text-anchor="middle" x="378" y="180" fill="black" font-size="8px">13</text>
<line x1="400" y1="200" x2="360" y2="198" stroke="blue" stroke-width="1" />
<circle cx="360" cy="198" r="5"               style="fill:green;stroke:black;stroke-width:1;fill-opacity:0.505905;stroke-opacity:0.9" />
<text text-anchor="middle" x="360" y="199" fill="black" font-size="8px">14</text>
<line x1="400" y1="200" x2="358" y2="204" stroke="blue" stroke-width="1" />
<circle cx="358" cy="204" r="5"               style="fill:green;stroke:black;stroke-width:1;fill-opacity:0.482421;stroke-opacity:0.9" />
<text text-anchor="middle" x="358" y="205" fill="black" font-size="8px">15</text>
<line x1="400" y1="200" x2="357" y2="209" stroke="blue" stroke-width="1" />
<circle cx="357" cy="209" r="5"               style="fill:green;stroke:black;stroke-width:1;fill-opacity:0.464997;stroke-opacity:0.9" />
<text text-anchor="middle" x="357" y="210" fill="black" font-size="8px">16</text>
<line x1="400" y1="200" x2="377" y2="258" stroke="blue" stroke-width="1" />
<circle cx="377" cy="258" r="5"               style="fill:green;stroke:black;stroke-width:1;fill-opacity:0.307709;stroke-opacity:0.9" />
<text text-anchor="middle" x="377" y="259" fill="black" font-size="8px">17</text>
<line x1="400" y1="200" x2="369" y2="250" stroke="blue" stroke-width="1" />
<circle cx="369" cy="250" r="5"               style="fill:green;stroke:black;stroke-width:1;fill-opacity:0.338115;stroke-opacity:0.9" />
<text text-anchor="middle" x="369" y="251" fill="black" font-size="8px">18</text>
<line x1="400" y1="200" x2="374" y2="256" stroke="blue" stroke-width="1" />
<circle cx="374" cy="256" r="5"               style="fill:green;stroke:black;stroke-width:1;fill-opacity:0.317076;stroke-opacity:0.9" />
<text text-anchor="middle" x="374" y="257" fill="black" font-size="8px">19</text>
<line x1="400" y1="200" x2="375" y2="256" stroke="blue" stroke-width="1" />
<circle cx="375" cy="256" r="5"               style="fill:green;stroke:black;stroke-width:1;fill-opacity:0.314844;stroke-opacity:0.9" />
<text text-anchor="middle" x="375" y="257" fill="black" font-size="8px">20</text>
<line x1="400" y1="200" x2="369" y2="250" stroke="blue" stroke-width="1" />
<circle cx="369" cy="250" r="5"               style="fill:green;stroke:black;stroke-width:1;fill-opacity:0.337692;stroke-opacity:0.9" />
<text text-anchor="middle" x="369" y="251" fill="black" font-size="8px">21</text>
<line x1="400" y1="200" x2="371" y2="253" stroke="blue" stroke-width="1" />
<circle cx="371" cy="253" r="5"               style="fill:green;stroke:black;stroke-width:1;fill-opacity:0.327095;stroke-opacity:0.9" />
<text text-anchor="middle" x="371" y="254" fill="black" font-size="8px">22</text>
<line x1="400" y1="200" x2="380" y2="261" stroke="blue" stroke-width="1" />
<circle cx="380" cy="261" r="5"               style="fill:green;stroke:black;stroke-width:1;fill-opacity:0.299470;stroke-opacity:0.9" />
<text text-anchor="middle" x="380" y="262" fill="black" font-size="8px">23</text>
<line x1="400" y1="200" x2="380" y2="260" stroke="blue" stroke-width="1" />
<circle cx="380" cy="260" r="5"               style="fill:green;stroke:black;stroke-width:1;fill-opacity:0.300547;stroke-opacity:0.9" />
<text text-anchor="middle" x="380" y="261" fill="black" font-size="8px">24</text>
<line x1="400" y1="200" x2="375" y2="256" stroke="blue" stroke-width="1" />
<circle cx="375" cy="256" r="5"               style="fill:green;stroke:black;stroke-width:1;fill-opacity:0.315947;stroke-opacity:0.9" />
<text text-anchor="middle" x="375" y="257" fill="black" font-size="8px">25</text>
<line x1="400" y1="200" x2="380" y2="261" stroke="blue" stroke-width="1" />
<circle cx="380" cy="261" r="5"               style="fill:green;stroke:black;stroke-width:1;fill-opacity:0.297785;stroke-opacity:0.9" />
<text text-anchor="middle" x="380" y="262" fill="black" font-size="8px">26</text>
<line x1="400" y1="200" x2="376" y2="257" stroke="blue" stroke-width="1" />
<circle cx="376" cy="257" r="5"               style="fill:green;stroke:black;stroke-width:1;fill-opacity:0.312808;stroke-opacity:0.9" />
<text text-anchor="middle" x="376" y="258" fill="black" font-size="8px">27</text>
<line x1="400" y1="200" x2="384" y2="263" stroke="blue" stroke-width="1" />
<circle cx="384" cy="263" r="5"               style="fill:green;stroke:black;stroke-width:1;fill-opacity:0.287316;stroke-opacity:0.9" />
<text text-anchor="middle" x="384" y="264" fill="black" font-size="8px">28</text>
<line x1="400" y1="200" x2="433" y2="274" stroke="blue" stroke-width="1" />
<circle cx="433" cy="274" r="5"               style="fill:green;stroke:black;stroke-width:1;fill-opacity:0.183518;stroke-opacity:0.9" />
<text text-anchor="middle" x="433" y="275" fill="black" font-size="8px">29</text>
<line x1="400" y1="200" x2="433" y2="274" stroke="blue" stroke-width="1" />
<circle cx="433" cy="274" r="5"               style="fill:green;stroke:black;stroke-width:1;fill-opacity:0.183086;stroke-opacity:0.9" />
<text text-anchor="middle" x="433" y="275" fill="black" font-size="8px">30</text>
<circle cx="400" cy="200" r="10"               style="fill:red;stroke:black;stroke-width:1;fill-opacity:1.000000;stroke-opacity:0.9" />
<text text-anchor="middle" x="600" y="150" fill="black" font-size="15px">Thhalv10008397m</text>
<line x1="600" y1="200" x2="615" y2="200" stroke="blue" stroke-width="1" />
<circle cx="615" cy="200" r="5"               style="fill:green;stroke:black;stroke-width:1;fill-opacity:1.000000;stroke-opacity:0.9" />
<text text-anchor="middle" x="615" y="201" fill="black" font-size="8px">1</text>
<line x1="600" y1="200" x2="614" y2="196" stroke="blue" stroke-width="1" />
<circle cx="614" cy="196" r="5"               style="fill:green;stroke:black;stroke-width:1;fill-opacity:0.958200;stroke-opacity:0.9" />
<text text-anchor="middle" x="614" y="197" fill="black" font-size="8px">2</text>
<line x1="600" y1="200" x2="614" y2="193" stroke="blue" stroke-width="1" />
<circle cx="614" cy="193" r="5"               style="fill:green;stroke:black;stroke-width:1;fill-opacity:0.933800;stroke-opacity:0.9" />
<text text-anchor="middle" x="614" y="194" fill="black" font-size="8px">3</text>
<line x1="600" y1="200" x2="613" y2="193" stroke="blue" stroke-width="1" />
<circle cx="613" cy="193" r="5"               style="fill:green;stroke:black;stroke-width:1;fill-opacity:0.928712;stroke-opacity:0.9" />
<text text-anchor="middle" x="613" y="194" fill="black" font-size="8px">4</text>
<line x1="600" y1="200" x2="614" y2="193" stroke="blue" stroke-width="1" />
<circle cx="614" cy="193" r="5"               style="fill:green;stroke:black;stroke-width:1;fill-opacity:0.930300;stroke-opacity:0.9" />
<text text-anchor="middle" x="614" y="194" fill="black" font-size="8px">5</text>
<line x1="600" y1="200" x2="591" y2="177" stroke="blue" stroke-width="1" />
<circle cx="591" cy="177" r="5"               style="fill:green;stroke:black;stroke-width:1;fill-opacity:0.692417;stroke-opacity:0.9" />
<text text-anchor="middle" x="591" y="178" fill="black" font-size="8px">6</text>
<line x1="600" y1="200" x2="590" y2="177" stroke="blue" stroke-width="1" />
<circle cx="590" cy="177" r="5"               style="fill:green;stroke:black;stroke-width:1;fill-opacity:0.685206;stroke-opacity:0.9" />
<text text-anchor="middle" x="590" y="178" fill="black" font-size="8px">7</text>
<line x1="600" y1="200" x2="588" y2="177" stroke="blue" stroke-width="1" />
<circle cx="588" cy="177" r="5"               style="fill:green;stroke:black;stroke-width:1;fill-opacity:0.675927;stroke-opacity:0.9" />
<text text-anchor="middle" x="588" y="178" fill="black" font-size="8px">8</text>
<line x1="600" y1="200" x2="585" y2="177" stroke="blue" stroke-width="1" />
<circle cx="585" cy="177" r="5"               style="fill:green;stroke:black;stroke-width:1;fill-opacity:0.659678;stroke-opacity:0.9" />
<text text-anchor="middle" x="585" y="178" fill="black" font-size="8px">9</text>
<line x1="600" y1="200" x2="588" y2="177" stroke="blue" stroke-width="1" />
<circle cx="588" cy="177" r="5"               style="fill:green;stroke:black;stroke-width:1;fill-opacity:0.673671;stroke-opacity:0.9" />
<text text-anchor="middle" x="588" y="178" fill="black" font-size="8px">10</text>
<line x1="600" y1="200" x2="585" y2="177" stroke="blue" stroke-width="1" />
<circle cx="585" cy="177" r="5"               style="fill:green;stroke:black;stroke-width:1;fill-opacity:0.660812;stroke-opacity:0.9" />
<text text-anchor="middle" x="585" y="178" fill="black" font-size="8px">11</text>
<line x1="600" y1="200" x2="582" y2="178" stroke="blue" stroke-width="1" />
<circle cx="582" cy="178" r="5"               style="fill:green;stroke:black;stroke-width:1;fill-opacity:0.640132;stroke-opacity:0.9" />
<text text-anchor="middle" x="582" y="179" fill="black" font-size="8px">12</text>
<line x1="600" y1="200" x2="571" y2="252" stroke="blue" stroke-width="1" />
<circle cx="571" cy="252" r="5"               style="fill:green;stroke:black;stroke-width:1;fill-opacity:0.329095;stroke-opacity:0.9" />
<text text-anchor="middle" x="571" y="253" fill="black" font-size="8px">13</text>
<line x1="600" y1="200" x2="574" y2="256" stroke="blue" stroke-width="1" />
<circle cx="574" cy="256" r="5"               style="fill:green;stroke:black;stroke-width:1;fill-opacity:0.317076;stroke-opacity:0.9" />
<text text-anchor="middle" x="574" y="257" fill="black" font-size="8px">14</text>
<line x1="600" y1="200" x2="579" y2="260" stroke="blue" stroke-width="1" />
<circle cx="579" cy="260" r="5"               style="fill:green;stroke:black;stroke-width:1;fill-opacity:0.300879;stroke-opacity:0.9" />
<text text-anchor="middle" x="579" y="261" fill="black" font-size="8px">15</text>
<line x1="600" y1="200" x2="569" y2="250" stroke="blue" stroke-width="1" />
<circle cx="569" cy="250" r="5"               style="fill:green;stroke:black;stroke-width:1;fill-opacity:0.335186;stroke-opacity:0.9" />
<text text-anchor="middle" x="569" y="251" fill="black" font-size="8px">16</text>
<line x1="600" y1="200" x2="578" y2="259" stroke="blue" stroke-width="1" />
<circle cx="578" cy="259" r="5"               style="fill:green;stroke:black;stroke-width:1;fill-opacity:0.303733;stroke-opacity:0.9" />
<text text-anchor="middle" x="578" y="260" fill="black" font-size="8px">17</text>
<line x1="600" y1="200" x2="575" y2="257" stroke="blue" stroke-width="1" />
<circle cx="575" cy="257" r="5"               style="fill:green;stroke:black;stroke-width:1;fill-opacity:0.313671;stroke-opacity:0.9" />
<text text-anchor="middle" x="575" y="258" fill="black" font-size="8px">18</text>
<line x1="600" y1="200" x2="574" y2="256" stroke="blue" stroke-width="1" />
<circle cx="574" cy="256" r="5"               style="fill:green;stroke:black;stroke-width:1;fill-opacity:0.317936;stroke-opacity:0.9" />
<text text-anchor="middle" x="574" y="257" fill="black" font-size="8px">19</text>
<line x1="600" y1="200" x2="574" y2="255" stroke="blue" stroke-width="1" />
<circle cx="574" cy="255" r="5"               style="fill:green;stroke:black;stroke-width:1;fill-opacity:0.319663;stroke-opacity:0.9" />
<text text-anchor="middle" x="574" y="256" fill="black" font-size="8px">20</text>
<line x1="600" y1="200" x2="579" y2="260" stroke="blue" stroke-width="1" />
<circle cx="579" cy="260" r="5"               style="fill:green;stroke:black;stroke-width:1;fill-opacity:0.300921;stroke-opacity:0.9" />
<text text-anchor="middle" x="579" y="261" fill="black" font-size="8px">21</text>
<line x1="600" y1="200" x2="582" y2="262" stroke="blue" stroke-width="1" />
<circle cx="582" cy="262" r="5"               style="fill:green;stroke:black;stroke-width:1;fill-opacity:0.293094;stroke-opacity:0.9" />
<text text-anchor="middle" x="582" y="263" fill="black" font-size="8px">22</text>
<line x1="600" y1="200" x2="579" y2="260" stroke="blue" stroke-width="1" />
<circle cx="579" cy="260" r="5"               style="fill:green;stroke:black;stroke-width:1;fill-opacity:0.301652;stroke-opacity:0.9" />
<text text-anchor="middle" x="579" y="261" fill="black" font-size="8px">23</text>
<circle cx="600" cy="200" r="10"               style="fill:red;stroke:black;stroke-width:1;fill-opacity:1.000000;stroke-opacity:0.9" />
<text text-anchor="middle" x="800" y="150" fill="black" font-size="15px">None</text>
<text text-anchor="middle" x="1000" y="150" fill="black" font-size="15px">None</text>
</svg>
