<svg height="500" width="1200">
<text text-anchor="middle" x="200" y="150" fill="black" font-size="15px">AT5G24660.1</text>
<text text-anchor="middle" x="200" y="130" fill="black" font-size="15px" font-style = "italic">A.thaliana</text>
<text text-anchor="middle" x="400" y="130" fill="black" font-size="15px" font-style = "italic">A.lyrata</text>
<text text-anchor="middle" x="600" y="130" fill="black" font-size="15px" font-style = "italic">E.salsugineum</text>
<text text-anchor="middle" x="800" y="130" fill="black" font-size="15px" font-style = "italic">A.halleri</text>
<text text-anchor="middle" x="1000" y="130" fill="black" font-size="15px" font-style = "italic">A.halleri_transcriptome</text>
<text text-anchor="middle" x="100" y="110" fill="black" font-size="15px">LSU2</text>
<line x1="200" y1="200" x2="215" y2="200" stroke="blue" stroke-width="1" />
<circle cx="215" cy="200" r="5"               style="fill:green;stroke:black;stroke-width:1;fill-opacity:1.000000;stroke-opacity:0.9" />
<text text-anchor="middle" x="215" y="201" fill="black" font-size="8px">1</text>
<text text-anchor="left" x="200" y="310" fill="black" font-size="10px">1 AT5G24660(LSU2)</text>
<line x1="200" y1="200" x2="211" y2="188" stroke="blue" stroke-width="1" />
<circle cx="211" cy="188" r="5"               style="fill:green;stroke:black;stroke-width:1;fill-opacity:0.872341;stroke-opacity:0.9" />
<text text-anchor="middle" x="211" y="189" fill="black" font-size="8px">2</text>
<text text-anchor="left" x="200" y="320" fill="black" font-size="10px">2 AT5G24655(LSU4)</text>
<line x1="200" y1="200" x2="200" y2="179" stroke="blue" stroke-width="1" />
<circle cx="200" cy="179" r="5"               style="fill:green;stroke:black;stroke-width:1;fill-opacity:0.756454;stroke-opacity:0.9" />
<text text-anchor="middle" x="200" y="180" fill="black" font-size="8px">3</text>
<text text-anchor="left" x="200" y="330" fill="black" font-size="10px">3 AT3G49570(LSU3)</text>
<line x1="200" y1="200" x2="174" y2="181" stroke="blue" stroke-width="1" />
<circle cx="174" cy="181" r="5"               style="fill:green;stroke:black;stroke-width:1;fill-opacity:0.600011;stroke-opacity:0.9" />
<text text-anchor="middle" x="174" y="182" fill="black" font-size="8px">4</text>
<text text-anchor="left" x="200" y="340" fill="black" font-size="10px">4 AT3G49580(LSU1)</text>
<circle cx="200" cy="200" r="10"               style="fill:red;stroke:black;stroke-width:1;fill-opacity:1.000000;stroke-opacity:0.9" />
<text text-anchor="middle" x="400" y="150" fill="black" font-size="15px">942024</text>
<line x1="400" y1="200" x2="415" y2="200" stroke="blue" stroke-width="1" />
<circle cx="415" cy="200" r="5"               style="fill:green;stroke:black;stroke-width:1;fill-opacity:1.000000;stroke-opacity:0.9" />
<text text-anchor="middle" x="415" y="201" fill="black" font-size="8px">1</text>
<text text-anchor="left" x="400" y="310" fill="black" font-size="10px">942024.0</text>
<line x1="400" y1="200" x2="411" y2="188" stroke="blue" stroke-width="1" />
<circle cx="411" cy="188" r="5"               style="fill:green;stroke:black;stroke-width:1;fill-opacity:0.872341;stroke-opacity:0.9" />
<text text-anchor="middle" x="411" y="189" fill="black" font-size="8px">2</text>
<text text-anchor="left" x="400" y="320" fill="black" font-size="10px">942023.0</text>
<line x1="400" y1="200" x2="398" y2="178" stroke="blue" stroke-width="1" />
<circle cx="398" cy="178" r="5"               style="fill:green;stroke:black;stroke-width:1;fill-opacity:0.740762;stroke-opacity:0.9" />
<text text-anchor="middle" x="398" y="179" fill="black" font-size="8px">3</text>
<text text-anchor="left" x="400" y="330" fill="black" font-size="10px">485313.0</text>
<line x1="400" y1="200" x2="369" y2="185" stroke="blue" stroke-width="1" />
<circle cx="369" cy="185" r="5"               style="fill:green;stroke:black;stroke-width:1;fill-opacity:0.568389;stroke-opacity:0.9" />
<text text-anchor="middle" x="369" y="186" fill="black" font-size="8px">4</text>
<text text-anchor="left" x="400" y="340" fill="black" font-size="10px">485314.0</text>
<circle cx="400" cy="200" r="10"               style="fill:red;stroke:black;stroke-width:1;fill-opacity:1.000000;stroke-opacity:0.9" />
<text text-anchor="middle" x="600" y="150" fill="black" font-size="15px">Thhalv10005368m</text>
<line x1="600" y1="200" x2="615" y2="200" stroke="blue" stroke-width="1" />
<circle cx="615" cy="200" r="5"               style="fill:green;stroke:black;stroke-width:1;fill-opacity:1.000000;stroke-opacity:0.9" />
<text text-anchor="middle" x="615" y="201" fill="black" font-size="8px">1</text>
<text text-anchor="left" x="600" y="310" fill="black" font-size="10px">Thhalv10005368m</text>
<line x1="600" y1="200" x2="559" y2="231" stroke="blue" stroke-width="1" />
<circle cx="559" cy="231" r="5"               style="fill:green;stroke:black;stroke-width:1;fill-opacity:0.396460;stroke-opacity:0.9" />
<text text-anchor="middle" x="559" y="232" fill="black" font-size="8px">2</text>
<text text-anchor="left" x="600" y="320" fill="black" font-size="10px">Thhalv10010815m</text>
<circle cx="600" cy="200" r="10"               style="fill:red;stroke:black;stroke-width:1;fill-opacity:1.000000;stroke-opacity:0.9" />
<text text-anchor="middle" x="800" y="150" fill="black" font-size="15px">Araha.7188s0009.1.p</text>
<line x1="800" y1="200" x2="815" y2="200" stroke="blue" stroke-width="1" />
<circle cx="815" cy="200" r="5"               style="fill:green;stroke:black;stroke-width:1;fill-opacity:1.000000;stroke-opacity:0.9" />
<text text-anchor="middle" x="815" y="201" fill="black" font-size="8px">1</text>
<text text-anchor="left" x="800" y="310" fill="black" font-size="10px">Araha.7188s0009.1</text>
<line x1="800" y1="200" x2="812" y2="190" stroke="blue" stroke-width="1" />
<circle cx="812" cy="190" r="5"               style="fill:green;stroke:black;stroke-width:1;fill-opacity:0.893639;stroke-opacity:0.9" />
<text text-anchor="middle" x="812" y="191" fill="black" font-size="8px">2</text>
<text text-anchor="left" x="800" y="320" fill="black" font-size="10px">Araha.7188s0010.1</text>
<circle cx="800" cy="200" r="10"               style="fill:red;stroke:black;stroke-width:1;fill-opacity:1.000000;stroke-opacity:0.9" />
<text text-anchor="middle" x="1000" y="150" fill="black" font-size="15px">4154</text>
<line x1="1000" y1="200" x2="1015" y2="200" stroke="blue" stroke-width="1" />
<circle cx="1015" cy="200" r="5"               style="fill:green;stroke:black;stroke-width:1;fill-opacity:1.000000;stroke-opacity:0.9" />
<text text-anchor="middle" x="1015" y="201" fill="black" font-size="8px">1</text>
<text text-anchor="left" x="1000" y="310" fill="black" font-size="10px">4154.0</text>
<line x1="1000" y1="200" x2="979" y2="179" stroke="blue" stroke-width="1" />
<circle cx="979" cy="179" r="5"               style="fill:green;stroke:black;stroke-width:1;fill-opacity:0.624323;stroke-opacity:0.9" />
<text text-anchor="middle" x="979" y="180" fill="black" font-size="8px">2</text>
<text text-anchor="left" x="1000" y="320" fill="black" font-size="10px">59685.0</text>
<line x1="1000" y1="200" x2="971" y2="184" stroke="blue" stroke-width="1" />
<circle cx="971" cy="184" r="5"               style="fill:green;stroke:black;stroke-width:1;fill-opacity:0.581829;stroke-opacity:0.9" />
<text text-anchor="middle" x="971" y="185" fill="black" font-size="8px">3</text>
<text text-anchor="left" x="1000" y="330" fill="black" font-size="10px">146608.0</text>
<circle cx="1000" cy="200" r="10"               style="fill:red;stroke:black;stroke-width:1;fill-opacity:1.000000;stroke-opacity:0.9" />
</svg>
