<svg height="500" width="500">
<line x1="200" y1="200" x2="215" y2="200" stroke="blue" stroke-width="1" />
<circle cx="215" cy="200" r="5"               style="fill:green;stroke:black;stroke-width:1;fill-opacity:1.000000;stroke-opacity:0.9" />
<text text-anchor="middle" x="215" y="201" fill="black" font-size="8px">1</text>
<text text-anchor="left" x="200" y="310" fill="black" font-size="10px">Thhalv10003554m</text>
<line x1="200" y1="200" x2="161" y2="196" stroke="blue" stroke-width="1" />
<circle cx="161" cy="196" r="5"               style="fill:green;stroke:black;stroke-width:1;fill-opacity:0.516493;stroke-opacity:0.9" />
<text text-anchor="middle" x="161" y="197" fill="black" font-size="8px">2</text>
<text text-anchor="left" x="200" y="320" fill="black" font-size="10px">Thhalv10006625m</text>
<line x1="200" y1="200" x2="159" y2="201" stroke="blue" stroke-width="1" />
<circle cx="159" cy="201" r="5"               style="fill:green;stroke:black;stroke-width:1;fill-opacity:0.494761;stroke-opacity:0.9" />
<text text-anchor="middle" x="159" y="202" fill="black" font-size="8px">3</text>
<text text-anchor="left" x="200" y="330" fill="black" font-size="10px">Thhalv10024253m</text>
<line x1="200" y1="200" x2="158" y2="229" stroke="blue" stroke-width="1" />
<circle cx="158" cy="229" r="5"               style="fill:green;stroke:black;stroke-width:1;fill-opacity:0.400750;stroke-opacity:0.9" />
<text text-anchor="middle" x="158" y="230" fill="black" font-size="8px">4</text>
<text text-anchor="left" x="200" y="340" fill="black" font-size="10px">Thhalv10019978m</text>
<line x1="200" y1="200" x2="271" y2="260" stroke="blue" stroke-width="1" />
<circle cx="271" cy="260" r="5"               style="fill:green;stroke:black;stroke-width:1;fill-opacity:0.111667;stroke-opacity:0.9" />
<text text-anchor="middle" x="271" y="261" fill="black" font-size="8px">5</text>
<text text-anchor="left" x="200" y="350" fill="black" font-size="10px">Thhalv10019978m</text>
<line x1="200" y1="200" x2="159" y2="231" stroke="blue" stroke-width="1" />
<circle cx="159" cy="231" r="5"               style="fill:green;stroke:black;stroke-width:1;fill-opacity:0.396201;stroke-opacity:0.9" />
<text text-anchor="middle" x="159" y="232" fill="black" font-size="8px">6</text>
<text text-anchor="left" x="200" y="360" fill="black" font-size="10px">Thhalv10024375m</text>
<circle cx="200" cy="200" r="10"               style="fill:red;stroke:black;stroke-width:1;fill-opacity:1.000000;stroke-opacity:0.9" />
</svg>
