<svg height="300" width="300">
<line x1="150" y1="150" x2="165" y2="150" stroke="blue" stroke-width="1" />
<circle cx="165" cy="150" r="5"           style="fill:green;stroke:black;stroke-width:1;fill-opacity:1.000000;stroke-opacity:0.9" />
<line x1="150" y1="150" x2="114" y2="141" stroke="blue" stroke-width="1" />
<circle cx="114" cy="141" r="5"           style="fill:green;stroke:black;stroke-width:1;fill-opacity:0.539353;stroke-opacity:0.9" />
<line x1="150" y1="150" x2="109" y2="183" stroke="blue" stroke-width="1" />
<circle cx="109" cy="183" r="5"           style="fill:green;stroke:black;stroke-width:1;fill-opacity:0.388776;stroke-opacity:0.9" />
<line x1="150" y1="150" x2="117" y2="138" stroke="blue" stroke-width="1" />
<circle cx="117" cy="138" r="5"           style="fill:green;stroke:black;stroke-width:1;fill-opacity:0.556090;stroke-opacity:0.9" />
<line x1="150" y1="150" x2="122" y2="133" stroke="blue" stroke-width="1" />
<circle cx="122" cy="133" r="5"           style="fill:green;stroke:black;stroke-width:1;fill-opacity:0.585360;stroke-opacity:0.9" />
<line x1="150" y1="150" x2="113" y2="142" stroke="blue" stroke-width="1" />
<circle cx="113" cy="142" r="5"           style="fill:green;stroke:black;stroke-width:1;fill-opacity:0.531518;stroke-opacity:0.9" />
<line x1="150" y1="150" x2="112" y2="144" stroke="blue" stroke-width="1" />
<circle cx="112" cy="144" r="5"           style="fill:green;stroke:black;stroke-width:1;fill-opacity:0.522960;stroke-opacity:0.9" />
<line x1="150" y1="150" x2="109" y2="150" stroke="blue" stroke-width="1" />
<circle cx="109" cy="150" r="5"           style="fill:green;stroke:black;stroke-width:1;fill-opacity:0.497623;stroke-opacity:0.9" />
<line x1="150" y1="150" x2="112" y2="145" stroke="blue" stroke-width="1" />
<circle cx="112" cy="145" r="5"           style="fill:green;stroke:black;stroke-width:1;fill-opacity:0.519987;stroke-opacity:0.9" />
<line x1="150" y1="150" x2="122" y2="133" stroke="blue" stroke-width="1" />
<circle cx="122" cy="133" r="5"           style="fill:green;stroke:black;stroke-width:1;fill-opacity:0.586068;stroke-opacity:0.9" />
<line x1="150" y1="150" x2="110" y2="150" stroke="blue" stroke-width="1" />
<circle cx="110" cy="150" r="5"           style="fill:green;stroke:black;stroke-width:1;fill-opacity:0.500000;stroke-opacity:0.9" />
<line x1="150" y1="150" x2="107" y2="159" stroke="blue" stroke-width="1" />
<circle cx="107" cy="159" r="5"           style="fill:green;stroke:black;stroke-width:1;fill-opacity:0.463640;stroke-opacity:0.9" />
<line x1="150" y1="150" x2="107" y2="160" stroke="blue" stroke-width="1" />
<circle cx="107" cy="160" r="5"           style="fill:green;stroke:black;stroke-width:1;fill-opacity:0.462233;stroke-opacity:0.9" />
<line x1="150" y1="150" x2="107" y2="172" stroke="blue" stroke-width="1" />
<circle cx="107" cy="172" r="5"           style="fill:green;stroke:black;stroke-width:1;fill-opacity:0.423690;stroke-opacity:0.9" />
<line x1="150" y1="150" x2="107" y2="162" stroke="blue" stroke-width="1" />
<circle cx="107" cy="162" r="5"           style="fill:green;stroke:black;stroke-width:1;fill-opacity:0.455696;stroke-opacity:0.9" />
<line x1="150" y1="150" x2="112" y2="189" stroke="blue" stroke-width="1" />
<circle cx="112" cy="189" r="5"           style="fill:green;stroke:black;stroke-width:1;fill-opacity:0.371319;stroke-opacity:0.9" />
<line x1="150" y1="150" x2="232" y2="202" stroke="blue" stroke-width="1" />
<circle cx="232" cy="202" r="5"           style="fill:green;stroke:black;stroke-width:1;fill-opacity:0.090648;stroke-opacity:0.9" />
<line x1="150" y1="150" x2="107" y2="163" stroke="blue" stroke-width="1" />
<circle cx="107" cy="163" r="5"           style="fill:green;stroke:black;stroke-width:1;fill-opacity:0.452944;stroke-opacity:0.9" />
<line x1="150" y1="150" x2="225" y2="208" stroke="blue" stroke-width="1" />
<circle cx="225" cy="208" r="5"           style="fill:green;stroke:black;stroke-width:1;fill-opacity:0.104524;stroke-opacity:0.9" />
<line x1="150" y1="150" x2="106" y2="163" stroke="blue" stroke-width="1" />
<circle cx="106" cy="163" r="5"           style="fill:green;stroke:black;stroke-width:1;fill-opacity:0.451205;stroke-opacity:0.9" />
<line x1="150" y1="150" x2="107" y2="170" stroke="blue" stroke-width="1" />
<circle cx="107" cy="170" r="5"           style="fill:green;stroke:black;stroke-width:1;fill-opacity:0.430209;stroke-opacity:0.9" />
<line x1="150" y1="150" x2="106" y2="169" stroke="blue" stroke-width="1" />
<circle cx="106" cy="169" r="5"           style="fill:green;stroke:black;stroke-width:1;fill-opacity:0.433805;stroke-opacity:0.9" />
<line x1="150" y1="150" x2="106" y2="167" stroke="blue" stroke-width="1" />
<circle cx="106" cy="167" r="5"           style="fill:green;stroke:black;stroke-width:1;fill-opacity:0.439897;stroke-opacity:0.9" />
<line x1="150" y1="150" x2="106" y2="165" stroke="blue" stroke-width="1" />
<circle cx="106" cy="165" r="5"           style="fill:green;stroke:black;stroke-width:1;fill-opacity:0.444026;stroke-opacity:0.9" />
<line x1="150" y1="150" x2="125" y2="207" stroke="blue" stroke-width="1" />
<circle cx="125" cy="207" r="5"           style="fill:green;stroke:black;stroke-width:1;fill-opacity:0.313568;stroke-opacity:0.9" />
<line x1="150" y1="150" x2="111" y2="186" stroke="blue" stroke-width="1" />
<circle cx="111" cy="186" r="5"           style="fill:green;stroke:black;stroke-width:1;fill-opacity:0.379253;stroke-opacity:0.9" />
<line x1="150" y1="150" x2="248" y2="184" stroke="blue" stroke-width="1" />
<circle cx="248" cy="184" r="5"           style="fill:green;stroke:black;stroke-width:1;fill-opacity:0.053922;stroke-opacity:0.9" />
<line x1="150" y1="150" x2="108" y2="178" stroke="blue" stroke-width="1" />
<circle cx="108" cy="178" r="5"           style="fill:green;stroke:black;stroke-width:1;fill-opacity:0.403887;stroke-opacity:0.9" />
<line x1="150" y1="150" x2="133" y2="213" stroke="blue" stroke-width="1" />
<circle cx="133" cy="213" r="5"           style="fill:green;stroke:black;stroke-width:1;fill-opacity:0.290100;stroke-opacity:0.9" />
<line x1="150" y1="150" x2="186" y2="224" stroke="blue" stroke-width="1" />
<circle cx="186" cy="224" r="5"           style="fill:green;stroke:black;stroke-width:1;fill-opacity:0.177150;stroke-opacity:0.9" />
<line x1="150" y1="150" x2="191" y2="223" stroke="blue" stroke-width="1" />
<circle cx="191" cy="223" r="5"           style="fill:green;stroke:black;stroke-width:1;fill-opacity:0.168291;stroke-opacity:0.9" />
<line x1="150" y1="150" x2="140" y2="217" stroke="blue" stroke-width="1" />
<circle cx="140" cy="217" r="5"           style="fill:green;stroke:black;stroke-width:1;fill-opacity:0.272714;stroke-opacity:0.9" />
<line x1="150" y1="150" x2="132" y2="212" stroke="blue" stroke-width="1" />
<circle cx="132" cy="212" r="5"           style="fill:green;stroke:black;stroke-width:1;fill-opacity:0.292864;stroke-opacity:0.9" />
<line x1="150" y1="150" x2="171" y2="225" stroke="blue" stroke-width="1" />
<circle cx="171" cy="225" r="5"           style="fill:green;stroke:black;stroke-width:1;fill-opacity:0.205150;stroke-opacity:0.9" />
<line x1="150" y1="150" x2="161" y2="224" stroke="blue" stroke-width="1" />
<circle cx="161" cy="224" r="5"           style="fill:green;stroke:black;stroke-width:1;fill-opacity:0.225479;stroke-opacity:0.9" />
<line x1="150" y1="150" x2="240" y2="194" stroke="blue" stroke-width="1" />
<circle cx="240" cy="194" r="5"           style="fill:green;stroke:black;stroke-width:1;fill-opacity:0.073564;stroke-opacity:0.9" />
<circle cx="150" cy="150" r="10"           style="fill:red;stroke:black;stroke-width:1;fill-opacity:1.000000;stroke-opacity:0.9" />
</svg>
