<svg height="280" width="1000">
<rect x="50" y="9" width="165" height="5" style="fill:blue;stroke:black;stroke-width:1;fill-opacity:0.8;stroke-opacity:0.3" />
<line x1="50" y1="11" x2="948" y2="11" stroke="black" stroke-width="1" />
<rect x="217" y="9" width="8" height="5" style="fill:yellow;stroke:black;stroke-width:1;fill-opacity:0.8;stroke-opacity:0.3" />
<rect x="620" y="9" width="86" height="5" style="fill:yellow;stroke:black;stroke-width:1;fill-opacity:0.8;stroke-opacity:0.3" />
<rect x="707" y="9" width="241" height="5" style="fill:blue;stroke:black;stroke-width:1;fill-opacity:0.8;stroke-opacity:0.3" />
<text x="15"  y="23" style="font-family:Arial;font-size:10;stroke:black;fill:black;">Cre02.g119526.v5.5</text>
<rect x="232" y="28" width="50" height="5" style="fill:pink;stroke:black;stroke-width:1;fill-opacity:0.8;stroke-opacity:0.3" />
<line x1="224" y1="30" x2="228" y2="32" stroke="black" stroke-width="1" />
<line x1="228" y1="32" x2="232" y2="30" stroke="black" stroke-width="1" />
<rect x="173" y="28" width="50" height="5" style="fill:pink;stroke:black;stroke-width:1;fill-opacity:0.8;stroke-opacity:0.3" />
<rect x="232" y="35" width="50" height="5" style="fill:pink;stroke:black;stroke-width:1;fill-opacity:0.8;stroke-opacity:0.3" />
<line x1="224" y1="37" x2="228" y2="39" stroke="black" stroke-width="1" />
<line x1="228" y1="39" x2="232" y2="37" stroke="black" stroke-width="1" />
<rect x="173" y="35" width="50" height="5" style="fill:pink;stroke:black;stroke-width:1;fill-opacity:0.8;stroke-opacity:0.3" />
<rect x="293" y="42" width="50" height="5" style="fill:pink;stroke:black;stroke-width:1;fill-opacity:0.8;stroke-opacity:0.3" />
<line x1="279" y1="44" x2="286" y2="46" stroke="black" stroke-width="1" />
<line x1="286" y1="46" x2="293" y2="44" stroke="black" stroke-width="1" />
<rect x="228" y="42" width="50" height="5" style="fill:pink;stroke:black;stroke-width:1;fill-opacity:0.8;stroke-opacity:0.3" />
<rect x="293" y="49" width="50" height="5" style="fill:pink;stroke:black;stroke-width:1;fill-opacity:0.8;stroke-opacity:0.3" />
<line x1="279" y1="51" x2="286" y2="53" stroke="black" stroke-width="1" />
<line x1="286" y1="53" x2="293" y2="51" stroke="black" stroke-width="1" />
<rect x="228" y="49" width="50" height="5" style="fill:pink;stroke:black;stroke-width:1;fill-opacity:0.8;stroke-opacity:0.3" />
<rect x="269" y="56" width="50" height="5" style="fill:pink;stroke:black;stroke-width:1;fill-opacity:0.8;stroke-opacity:0.3" />
<line x1="242" y1="58" x2="255" y2="60" stroke="black" stroke-width="1" />
<line x1="255" y1="60" x2="269" y2="58" stroke="black" stroke-width="1" />
<rect x="191" y="56" width="50" height="5" style="fill:pink;stroke:black;stroke-width:1;fill-opacity:0.8;stroke-opacity:0.3" />
<rect x="269" y="63" width="50" height="5" style="fill:pink;stroke:black;stroke-width:1;fill-opacity:0.8;stroke-opacity:0.3" />
<line x1="242" y1="65" x2="255" y2="67" stroke="black" stroke-width="1" />
<line x1="255" y1="67" x2="269" y2="65" stroke="black" stroke-width="1" />
<rect x="191" y="63" width="50" height="5" style="fill:pink;stroke:black;stroke-width:1;fill-opacity:0.8;stroke-opacity:0.3" />
<rect x="295" y="70" width="46" height="5" style="fill:pink;stroke:black;stroke-width:1;fill-opacity:0.8;stroke-opacity:0.3" />
<rect x="342" y="70" width="4" height="5" style="fill:pink;stroke:black;stroke-width:1;fill-opacity:0.8;stroke-opacity:0.3" />
<line x1="261" y1="72" x2="278" y2="74" stroke="black" stroke-width="1" />
<line x1="278" y1="74" x2="295" y2="72" stroke="black" stroke-width="1" />
<rect x="211" y="70" width="50" height="5" style="fill:pink;stroke:black;stroke-width:1;fill-opacity:0.8;stroke-opacity:0.3" />
<rect x="295" y="77" width="46" height="5" style="fill:pink;stroke:black;stroke-width:1;fill-opacity:0.8;stroke-opacity:0.3" />
<rect x="342" y="77" width="4" height="5" style="fill:pink;stroke:black;stroke-width:1;fill-opacity:0.8;stroke-opacity:0.3" />
<line x1="261" y1="79" x2="278" y2="81" stroke="black" stroke-width="1" />
<line x1="278" y1="81" x2="295" y2="79" stroke="black" stroke-width="1" />
<rect x="211" y="77" width="50" height="5" style="fill:pink;stroke:black;stroke-width:1;fill-opacity:0.8;stroke-opacity:0.3" />
<rect x="486" y="28" width="50" height="5" style="fill:pink;stroke:black;stroke-width:1;fill-opacity:0.8;stroke-opacity:0.3" />
<line x1="459" y1="30" x2="472" y2="32" stroke="black" stroke-width="1" />
<line x1="472" y1="32" x2="486" y2="30" stroke="black" stroke-width="1" />
<rect x="408" y="28" width="50" height="5" style="fill:pink;stroke:black;stroke-width:1;fill-opacity:0.8;stroke-opacity:0.3" />
<rect x="486" y="35" width="50" height="5" style="fill:pink;stroke:black;stroke-width:1;fill-opacity:0.8;stroke-opacity:0.3" />
<line x1="459" y1="37" x2="472" y2="39" stroke="black" stroke-width="1" />
<line x1="472" y1="39" x2="486" y2="37" stroke="black" stroke-width="1" />
<rect x="408" y="35" width="50" height="5" style="fill:pink;stroke:black;stroke-width:1;fill-opacity:0.8;stroke-opacity:0.3" />
<rect x="407" y="84" width="50" height="5" style="fill:pink;stroke:black;stroke-width:1;fill-opacity:0.8;stroke-opacity:0.3" />
<line x1="310" y1="86" x2="358" y2="88" stroke="black" stroke-width="1" />
<line x1="358" y1="88" x2="407" y2="86" stroke="black" stroke-width="1" />
<rect x="259" y="84" width="50" height="5" style="fill:pink;stroke:black;stroke-width:1;fill-opacity:0.8;stroke-opacity:0.3" />
<rect x="407" y="91" width="50" height="5" style="fill:pink;stroke:black;stroke-width:1;fill-opacity:0.8;stroke-opacity:0.3" />
<line x1="310" y1="93" x2="358" y2="95" stroke="black" stroke-width="1" />
<line x1="358" y1="95" x2="407" y2="93" stroke="black" stroke-width="1" />
<rect x="259" y="91" width="50" height="5" style="fill:pink;stroke:black;stroke-width:1;fill-opacity:0.8;stroke-opacity:0.3" />
<rect x="468" y="42" width="50" height="5" style="fill:pink;stroke:black;stroke-width:1;fill-opacity:0.8;stroke-opacity:0.3" />
<line x1="438" y1="44" x2="453" y2="46" stroke="black" stroke-width="1" />
<line x1="453" y1="46" x2="468" y2="44" stroke="black" stroke-width="1" />
<rect x="387" y="42" width="50" height="5" style="fill:pink;stroke:black;stroke-width:1;fill-opacity:0.8;stroke-opacity:0.3" />
<rect x="468" y="49" width="50" height="5" style="fill:pink;stroke:black;stroke-width:1;fill-opacity:0.8;stroke-opacity:0.3" />
<line x1="438" y1="51" x2="453" y2="53" stroke="black" stroke-width="1" />
<line x1="453" y1="53" x2="468" y2="51" stroke="black" stroke-width="1" />
<rect x="387" y="49" width="50" height="5" style="fill:pink;stroke:black;stroke-width:1;fill-opacity:0.8;stroke-opacity:0.3" />
<rect x="476" y="56" width="50" height="5" style="fill:pink;stroke:black;stroke-width:1;fill-opacity:0.8;stroke-opacity:0.3" />
<line x1="469" y1="58" x2="472" y2="60" stroke="black" stroke-width="1" />
<line x1="472" y1="60" x2="476" y2="58" stroke="black" stroke-width="1" />
<rect x="418" y="56" width="50" height="5" style="fill:pink;stroke:black;stroke-width:1;fill-opacity:0.8;stroke-opacity:0.3" />
<rect x="476" y="63" width="50" height="5" style="fill:pink;stroke:black;stroke-width:1;fill-opacity:0.8;stroke-opacity:0.3" />
<line x1="469" y1="65" x2="472" y2="67" stroke="black" stroke-width="1" />
<line x1="472" y1="67" x2="476" y2="65" stroke="black" stroke-width="1" />
<rect x="418" y="63" width="50" height="5" style="fill:pink;stroke:black;stroke-width:1;fill-opacity:0.8;stroke-opacity:0.3" />
<rect x="470" y="70" width="50" height="5" style="fill:pink;stroke:black;stroke-width:1;fill-opacity:0.8;stroke-opacity:0.3" />
<line x1="432" y1="72" x2="451" y2="74" stroke="black" stroke-width="1" />
<line x1="451" y1="74" x2="470" y2="72" stroke="black" stroke-width="1" />
<rect x="381" y="70" width="50" height="5" style="fill:pink;stroke:black;stroke-width:1;fill-opacity:0.8;stroke-opacity:0.3" />
<rect x="470" y="77" width="50" height="5" style="fill:pink;stroke:black;stroke-width:1;fill-opacity:0.8;stroke-opacity:0.3" />
<line x1="432" y1="79" x2="451" y2="81" stroke="black" stroke-width="1" />
<line x1="451" y1="81" x2="470" y2="79" stroke="black" stroke-width="1" />
<rect x="381" y="77" width="50" height="5" style="fill:pink;stroke:black;stroke-width:1;fill-opacity:0.8;stroke-opacity:0.3" />
<text x="15"  y="106" style="font-family:Arial;font-size:10;stroke:black;fill:black;">merge.all.bam</text>
<rect x="573" y="113" width="17" height="5" style="fill:pink;stroke:black;stroke-width:1;fill-opacity:0.8;stroke-opacity:0.3" />
<rect x="567" y="120" width="17" height="5" style="fill:pink;stroke:black;stroke-width:1;fill-opacity:0.8;stroke-opacity:0.3" />
<rect x="561" y="127" width="17" height="5" style="fill:pink;stroke:black;stroke-width:1;fill-opacity:0.8;stroke-opacity:0.3" />
<rect x="581" y="127" width="17" height="5" style="fill:pink;stroke:black;stroke-width:1;fill-opacity:0.8;stroke-opacity:0.3" />
<rect x="706" y="113" width="17" height="5" style="fill:pink;stroke:black;stroke-width:1;fill-opacity:0.8;stroke-opacity:0.3" />
<rect x="430" y="113" width="17" height="5" style="fill:pink;stroke:black;stroke-width:1;fill-opacity:0.8;stroke-opacity:0.3" />
<rect x="567" y="134" width="17" height="5" style="fill:pink;stroke:black;stroke-width:1;fill-opacity:0.8;stroke-opacity:0.3" />
<rect x="425" y="120" width="17" height="5" style="fill:pink;stroke:black;stroke-width:1;fill-opacity:0.8;stroke-opacity:0.3" />
<rect x="704" y="120" width="17" height="5" style="fill:pink;stroke:black;stroke-width:1;fill-opacity:0.8;stroke-opacity:0.3" />
<rect x="569" y="141" width="17" height="5" style="fill:pink;stroke:black;stroke-width:1;fill-opacity:0.8;stroke-opacity:0.3" />
<rect x="567" y="148" width="17" height="5" style="fill:pink;stroke:black;stroke-width:1;fill-opacity:0.8;stroke-opacity:0.3" />
<rect x="426" y="127" width="17" height="5" style="fill:pink;stroke:black;stroke-width:1;fill-opacity:0.8;stroke-opacity:0.3" />
<rect x="560" y="155" width="17" height="5" style="fill:pink;stroke:black;stroke-width:1;fill-opacity:0.8;stroke-opacity:0.3" />
<rect x="582" y="155" width="17" height="5" style="fill:pink;stroke:black;stroke-width:1;fill-opacity:0.8;stroke-opacity:0.3" />
<rect x="567" y="162" width="17" height="5" style="fill:pink;stroke:black;stroke-width:1;fill-opacity:0.8;stroke-opacity:0.3" />
<rect x="563" y="169" width="17" height="5" style="fill:pink;stroke:black;stroke-width:1;fill-opacity:0.8;stroke-opacity:0.3" />
<rect x="580" y="176" width="17" height="5" style="fill:pink;stroke:black;stroke-width:1;fill-opacity:0.8;stroke-opacity:0.3" />
<rect x="584" y="169" width="17" height="5" style="fill:pink;stroke:black;stroke-width:1;fill-opacity:0.8;stroke-opacity:0.3" />
<rect x="704" y="127" width="17" height="5" style="fill:pink;stroke:black;stroke-width:1;fill-opacity:0.8;stroke-opacity:0.3" />
<rect x="556" y="176" width="17" height="5" style="fill:pink;stroke:black;stroke-width:1;fill-opacity:0.8;stroke-opacity:0.3" />
<rect x="671" y="113" width="17" height="5" style="fill:pink;stroke:black;stroke-width:1;fill-opacity:0.8;stroke-opacity:0.3" />
<rect x="704" y="134" width="17" height="5" style="fill:pink;stroke:black;stroke-width:1;fill-opacity:0.8;stroke-opacity:0.3" />
<rect x="698" y="141" width="17" height="5" style="fill:pink;stroke:black;stroke-width:1;fill-opacity:0.8;stroke-opacity:0.3" />
<rect x="433" y="134" width="17" height="5" style="fill:pink;stroke:black;stroke-width:1;fill-opacity:0.8;stroke-opacity:0.3" />
<rect x="552" y="113" width="17" height="5" style="fill:pink;stroke:black;stroke-width:1;fill-opacity:0.8;stroke-opacity:0.3" />
<rect x="426" y="141" width="17" height="5" style="fill:pink;stroke:black;stroke-width:1;fill-opacity:0.8;stroke-opacity:0.3" />
<rect x="430" y="148" width="17" height="5" style="fill:pink;stroke:black;stroke-width:1;fill-opacity:0.8;stroke-opacity:0.3" />
<rect x="696" y="148" width="17" height="5" style="fill:pink;stroke:black;stroke-width:1;fill-opacity:0.8;stroke-opacity:0.3" />
<rect x="433" y="155" width="17" height="5" style="fill:pink;stroke:black;stroke-width:1;fill-opacity:0.8;stroke-opacity:0.3" />
<rect x="426" y="162" width="17" height="5" style="fill:pink;stroke:black;stroke-width:1;fill-opacity:0.8;stroke-opacity:0.3" />
<rect x="695" y="155" width="17" height="5" style="fill:pink;stroke:black;stroke-width:1;fill-opacity:0.8;stroke-opacity:0.3" />
<rect x="675" y="120" width="17" height="5" style="fill:pink;stroke:black;stroke-width:1;fill-opacity:0.8;stroke-opacity:0.3" />
<rect x="429" y="169" width="17" height="5" style="fill:pink;stroke:black;stroke-width:1;fill-opacity:0.8;stroke-opacity:0.3" />
<rect x="676" y="127" width="17" height="5" style="fill:pink;stroke:black;stroke-width:1;fill-opacity:0.8;stroke-opacity:0.3" />
<rect x="419" y="176" width="17" height="5" style="fill:pink;stroke:black;stroke-width:1;fill-opacity:0.8;stroke-opacity:0.3" />
<rect x="437" y="176" width="17" height="5" style="fill:pink;stroke:black;stroke-width:1;fill-opacity:0.8;stroke-opacity:0.3" />
<rect x="703" y="162" width="17" height="5" style="fill:pink;stroke:black;stroke-width:1;fill-opacity:0.8;stroke-opacity:0.3" />
<rect x="671" y="134" width="17" height="5" style="fill:pink;stroke:black;stroke-width:1;fill-opacity:0.8;stroke-opacity:0.3" />
<rect x="671" y="141" width="17" height="5" style="fill:pink;stroke:black;stroke-width:1;fill-opacity:0.8;stroke-opacity:0.3" />
<rect x="673" y="148" width="17" height="5" style="fill:pink;stroke:black;stroke-width:1;fill-opacity:0.8;stroke-opacity:0.3" />
<rect x="414" y="134" width="17" height="5" style="fill:pink;stroke:black;stroke-width:1;fill-opacity:0.8;stroke-opacity:0.3" />
<rect x="748" y="113" width="17" height="5" style="fill:pink;stroke:black;stroke-width:1;fill-opacity:0.8;stroke-opacity:0.3" />
<rect x="673" y="155" width="17" height="5" style="fill:pink;stroke:black;stroke-width:1;fill-opacity:0.8;stroke-opacity:0.3" />
<rect x="671" y="162" width="17" height="5" style="fill:pink;stroke:black;stroke-width:1;fill-opacity:0.8;stroke-opacity:0.3" />
<rect x="414" y="155" width="17" height="5" style="fill:pink;stroke:black;stroke-width:1;fill-opacity:0.8;stroke-opacity:0.3" />
<rect x="698" y="169" width="17" height="5" style="fill:pink;stroke:black;stroke-width:1;fill-opacity:0.8;stroke-opacity:0.3" />
<rect x="748" y="120" width="17" height="5" style="fill:pink;stroke:black;stroke-width:1;fill-opacity:0.8;stroke-opacity:0.3" />
<rect x="671" y="169" width="17" height="5" style="fill:pink;stroke:black;stroke-width:1;fill-opacity:0.8;stroke-opacity:0.3" />
<rect x="698" y="176" width="17" height="5" style="fill:pink;stroke:black;stroke-width:1;fill-opacity:0.8;stroke-opacity:0.3" />
<rect x="358" y="113" width="17" height="5" style="fill:pink;stroke:black;stroke-width:1;fill-opacity:0.8;stroke-opacity:0.3" />
<rect x="672" y="176" width="17" height="5" style="fill:pink;stroke:black;stroke-width:1;fill-opacity:0.8;stroke-opacity:0.3" />
<rect x="747" y="127" width="17" height="5" style="fill:pink;stroke:black;stroke-width:1;fill-opacity:0.8;stroke-opacity:0.3" />
<rect x="748" y="134" width="17" height="5" style="fill:pink;stroke:black;stroke-width:1;fill-opacity:0.8;stroke-opacity:0.3" />
<rect x="748" y="141" width="17" height="5" style="fill:pink;stroke:black;stroke-width:1;fill-opacity:0.8;stroke-opacity:0.3" />
<rect x="748" y="148" width="17" height="5" style="fill:pink;stroke:black;stroke-width:1;fill-opacity:0.8;stroke-opacity:0.3" />
<rect x="748" y="155" width="17" height="5" style="fill:pink;stroke:black;stroke-width:1;fill-opacity:0.8;stroke-opacity:0.3" />
<rect x="479" y="113" width="17" height="5" style="fill:pink;stroke:black;stroke-width:1;fill-opacity:0.8;stroke-opacity:0.3" />
<rect x="747" y="162" width="17" height="5" style="fill:pink;stroke:black;stroke-width:1;fill-opacity:0.8;stroke-opacity:0.3" />
<rect x="748" y="169" width="17" height="5" style="fill:pink;stroke:black;stroke-width:1;fill-opacity:0.8;stroke-opacity:0.3" />
<rect x="257" y="113" width="17" height="5" style="fill:pink;stroke:black;stroke-width:1;fill-opacity:0.8;stroke-opacity:0.3" />
<rect x="744" y="176" width="17" height="5" style="fill:pink;stroke:black;stroke-width:1;fill-opacity:0.8;stroke-opacity:0.3" />
<rect x="206" y="113" width="17" height="5" style="fill:pink;stroke:black;stroke-width:1;fill-opacity:0.8;stroke-opacity:0.3" />
<rect x="551" y="141" width="16" height="5" style="fill:pink;stroke:black;stroke-width:1;fill-opacity:0.8;stroke-opacity:0.3" />
<rect x="238" y="113" width="16" height="5" style="fill:pink;stroke:black;stroke-width:1;fill-opacity:0.8;stroke-opacity:0.3" />
<rect x="517" y="113" width="16" height="5" style="fill:pink;stroke:black;stroke-width:1;fill-opacity:0.8;stroke-opacity:0.3" />
<text x="15"  y="191" style="font-family:Arial;font-size:10;stroke:black;fill:black;">SRP002284.sulfur.merged.bam</text>
</svg>
    
